<?xml version="1.0" encoding="utf-8"?>
<!-- Generator: Adobe Illustrator 16.0.0, SVG Export Plug-In . SVG Version: 6.00 Build 0)  -->
<!DOCTYPE svg PUBLIC "-//W3C//DTD SVG 1.1//EN" "http://www.w3.org/Graphics/SVG/1.1/DTD/svg11.dtd">
<svg version="1.1" id="Layer_1" xmlns="http://www.w3.org/2000/svg" xmlns:xlink="http://www.w3.org/1999/xlink" x="0px" y="0px"
	 width="480px" height="390.111px" viewBox="42.638 132.01 480 390.111" enable-background="new 42.638 132.01 480 390.111"
	 xml:space="preserve">
<polygon fill="#FFFFFF" stroke="#000000" stroke-miterlimit="10" points="410.292,213.38 386.947,172.945 410.292,132.51 
	456.983,132.51 480.328,172.945 456.983,213.38 "/>
<circle fill="#FFFFFF" stroke="#000000" stroke-miterlimit="10" cx="293.138" cy="185.445" r="42.5"/>
<rect x="51.638" y="147.945" fill="#FFFFFF" stroke="#000000" stroke-miterlimit="10" width="103" height="103"/>
<text transform="matrix(1 0 0 1 80.6377 315.9448)" font-family="'MyriadPro-Regular'" font-size="12">Kitty</text>
<line fill="none" x1="227.638" y1="315.945" x2="350.638" y2="315.945"/>
<path fill="none" d="M91.638,389.945c0,20.766-5.643,49.256,6.76,66.918c19.078-7.982,50.473,4.926,54.795-21.691
	c1.664-10.244,2.228-24.126-3.944-32.444c-5.22-7.034-51.297-21.583-56.61-10.781"/>
<path fill="none" d="M223.638,381.945c0,25.623,4.361,48.871,8.143,73.672c8.231,0.906,16.541-1.871,24.57-3.424
	c33.264-6.43,67.976-9.309,101.663-14.201c3.842-16.584-5.104-31.417-7.422-46.789c-1.244-8.252-3.467-25.408-11.087-29.169
	c-4.746-2.343-16.154,1.095-20.602,1.654c-13.18,1.657-26.372,3.748-39.479,5.387c-9.492,1.187-18.962,0.633-28.477,2.044
	c-9.178,1.361-30.057,0.003-27.311,13.826"/>
<path fill="none" d="M42.638,396.945c4.142,5.841,4.933,12.479,6.89,19.213c4.526,15.58,10.843,30.302,16.196,45.642
	c4.596,13.168,11.321,27.916,11.168,41.902c16.085-15.709,24.667-49.592,27.77-71.215c1.562-10.887,0.661-25.006,4.123-35.081
	c10.27,18.283,7.758,47.288,11.201,67.526c3.115,18.311,7.395,41.951,18.816,57.188c6.029-5.359,6.673-15.371,9.393-22.631
	c5.363-14.313,7.764-24.404,9.607-39.617c2.301-18.982,10.391-40.897,8.836-59.928"/>
<path fill="none" d="M299.638,344.945c-17.875-10.182-56.941,30.025-52.443,50.771c3.948,18.215,52.804,42.147,69.809,28.432
	c13.733-11.077,29.337-51.049,24.836-68.51c-3.65-14.166-18.813-22.578-32.201-15.693"/>
<path fill="none" d="M348.638,333.945c10.887,9.605,17.558,37.455,24.056,51.201c7.984,16.893,13.529,33.012,27.755,44.695
	c11.622-28.717,5.027-62.08,23.996-89.287c6.445,12.291,15.678,92.781,45.646,81.023c13.414-5.263,25.18-39.134,30.345-50.681
	c7.027-15.709,17.367-32.724,22.203-48.953"/>
<path fill="none" d="M72.638,363.945c16.455,34.697,32.738,68.027,33.002,106.654c20.251-43.258,28.912-91.438,51.147-133.564
	c-1.335,30.354-2.561,62.11,6.86,90.99c27.953-10.084,24.441-65.459,29.99-89.08"/>
<path fill="none" stroke="#000000" stroke-miterlimit="10" d="M217.638,332.945c0.146,28.002,9.174,51.919,16.607,78.773
	c3.186,11.512,5.65,24.526,10.14,35.155c18.503,2.793,39.169-37.038,44.464-49.959c4.595-11.215,5.021-25.135,11.615-35.449
	c1.006,18.891,0.193,38.063,0.174,56.988c-0.01,9.555-1.519,21.319,2.391,30.01c10.325-17.682,14.441-39.667,21.331-58.861
	c4.298-11.977,12.006-25.514,11.278-38.656"/>
</svg>
